<svg id="icon" xmlns="http://www.w3.org/2000/svg" viewBox="0 0 78.268 81.5387">
    <g fill="none" stroke="#c7647d" stroke-width="5.33333">
        <path d="M21.33 5.0507c2.45.5667 4.62 1.6933 6.41 3.2147 3.63-4.3547 9.52-6.5534 15.42-5.1894C49.4 4.52 53.89 9.5467 54.94 15.4827c2.74-1.048 5.8-1.3187 8.86-.6107 8.19 1.8947 13.3 10.0667 11.4 18.2534-1.89 8.188-10.06 13.2893-18.25 11.396-.73-.168-1.42-.384-2.1-.644 1.14 1.1386 2.71 29.9266-5.48 33.892-8.2 3.9653-38.03-2.9534-43.69-10.1014-5.66-7.148 8.28-32.2746 9.73-32.7826-.31-.052-.63-.1134-.94-.1854-8.19-1.8946-13.29-10.0666-11.4-18.2533 1.9-8.188 10.07-13.2893 18.26-11.396z"/>
        <path d="M25.41 24.2867c-1.26-2.924-1.63-6.26-.85-9.5987 1.93-8.3426 10.26-13.5413 18.6-11.612 8.35 1.9294 13.55 10.2574 11.62 18.6014M24.85 68.4694c-7.25-2.8747-1.28-25.532-.08-26.42M41.02 71.8854c-7.24-2.8734-1.28-25.5307-.08-26.4187M54.89 67.092c-7.51 12.6827-48.6-4.348-49.93-6.8053"/>
    </g>
</svg>
