<svg id="icon" xmlns="http://www.w3.org/2000/svg" viewBox="0 0 78.268 81.5387">
    <g fill-rule="evenodd" stroke-width="5">
        <path d="M21.324 5.0507c2.448.5666 4.62 1.6933 6.412 3.2146 3.628-4.3546 9.52-6.5533 15.42-5.1893C49.4 4.52 53.885 9.5467 54.938 15.4827c2.732-1.048 5.795-1.3187 8.86-.6107 8.19 1.8947 13.294 10.0667 11.4 18.2533-1.893 8.188-10.066 13.2894-18.256 11.396-.722-.168-1.421-.384-2.093-.644 1.132 1.1387 2.707 29.9267-5.488 33.8917-8.195 3.966-38.023-2.953-43.683-10.101-5.66-7.148 8.282-32.2747 9.724-32.7827-.312-.052-.624-.1133-.934-.1853-8.19-1.8947-13.294-10.0667-11.4-18.2533 1.893-8.188 10.066-13.2894 18.256-11.396z"/>
        <path d="M25.405 24.2867c-1.256-2.924-1.625-6.26-.853-9.5987C26.481 6.3453 34.81 1.1467 43.156 3.076c8.345 1.9293 13.546 10.2573 11.617 18.6013M54.889 67.092C47.38 79.775 6.288 62.744 4.954 60.287"/>
        <path stroke-linejoin="round" d="M37.909 66.197c-.116-2.738 1.283-13.5117 3.693-20.8357M22.885 61.755c-.117-2.739 1.283-13.5123 3.693-20.8363"/>
    </g>
</svg>
