<svg id="icon" xmlns="http://www.w3.org/2000/svg" viewBox="0 0 204.177 194.745">
    <path fill-rule="evenodd" d="M102.088.687c10.204 0 20.407 42.912 30.611 64.368 23.558 3.075 67.522-.481 70.676 9.223 3.153 9.704-34.506 32.668-51.758 49.001 4.356 23.356 21.324 64.071 13.07 70.068-8.255 5.997-41.732-22.721-62.599-34.081-20.867 11.36-54.344 40.078-62.599 34.081-8.254-5.997 8.714-46.712 13.07-70.068C35.307 106.946-2.352 83.982.801 74.278c3.154-9.704 47.118-6.148 70.676-9.223C81.681 43.599 91.884.687 102.088.687z"/>
</svg>
